# xmcd
#
# Track frame offsets: 
#        150
#        24512
#        48875
#        54505
#        72337
#        92825
#        111500
#        148550
#
# Disc length: 2362 seconds
#
# Revision: 2
# Processed by: cddbd v1.5.2PL0 Copyright (c) Steve Scherf et al.
# Submitted via: ExactAudioCopy v0.99pb5
#
DISCID=6d093808
DTITLE=Mariano - Intuition 2
DYEAR=1987
DGENRE=Jazz
TTITLE0=Al Hadji
TTITLE1=Fourth Sun
TTITLE2=El Colibri
TTITLE3=The Path
TTITLE4=Daria
TTITLE5=Kalimba
TTITLE6=Pink Lady
TTITLE7=Pavane (Pour Une Infante De´funte
EXTD=YEAR: 1987
EXTT0=
EXTT1=
EXTT2=
EXTT3=
EXTT4=
EXTT5=
EXTT6=
EXTT7=
PLAYORDER=
